<svg xmlns="http://www.w3.org/2000/svg" viewBox="134 167 778 686"><path d="M599,173 L536,237 L602,305 L437,474 L529,565 L606,494 L736,622 L908,446 L739,278 L718,290 Z " fill="#4b5a63" stroke="#4b5a63" stroke-width="6" stroke-linejoin="miter"/><path d="M348,284 L138,490 L232,588 L203,622 L339,756 L371,724 L278,629 L484,422 Z " fill="#589ca3" stroke="#589ca3" stroke-width="6" stroke-linejoin="miter"/><path d="M606,495 L382,720 L510,849 L539,822 L561,838 L718,680 L700,663 L554,810 L520,781 L667,629 L672,628 L703,655 L733,624 Z " fill="#36404a" stroke="#36404a" stroke-width="6" stroke-linejoin="miter"/><path d="M672,632 L669,632 L524,778 L524,781 L550,807 L553,807 L698,661 L698,658 Z M435,474 L279,629 L371,723 L380,718 L528,569 L527,564 Z " fill="#57e5e1" stroke="#57e5e1" stroke-width="6" stroke-linejoin="miter"/><path d="M466,171 L352,286 L487,419 L601,303 L535,238 L535,234 L532,234 Z " fill="#b4c7ce" stroke="#b4c7ce" stroke-width="6" stroke-linejoin="miter"/></svg>